HIERARCHY
ROOT Hips
{
  OFFSET -31.5692 30.0904 122.763
  CHANNELS 6 Xposition Yposition Zposition Zrotation Xrotation Yrotation
  JOINT LeftUpLeg
  {
    OFFSET 8.64259 1.95398 -2.38835
    CHANNELS 3 Zrotation Xrotation Yrotation
    JOINT LeftLeg
    {
      OFFSET 43.7702 0 0
      CHANNELS 3 Zrotation Xrotation Yrotation
      JOINT LeftFoot
      {
        OFFSET 40.6238 0 0
        CHANNELS 3 Zrotation Xrotation Yrotation
        JOINT LeftToeBase
        {
          OFFSET 12.7242 0 0
          CHANNELS 3 Zrotation Xrotation Yrotation
          End Site
          {
            OFFSET 0 0 0
          }
        }
      }
    }
  }
  JOINT RightUpLeg
  {
    OFFSET -8.2249 1.95398 -2.59336
    CHANNELS 3 Zrotation Xrotation Yrotation
    JOINT RightLeg
    {
      OFFSET 43.5653 0 0
      CHANNELS 3 Zrotation Xrotation Yrotation
      JOINT RightFoot
      {
        OFFSET 40.6238 0 0
        CHANNELS 3 Zrotation Xrotation Yrotation
        JOINT RightToeBase
        {
          OFFSET 12.7242 0 0
          CHANNELS 3 Zrotation Xrotation Yrotation
          End Site
          {
            OFFSET 0 0 0
          }
        }
      }
    }
  }
  JOINT Spine
  {
    OFFSET 0.165834 0.87714 6.61349
    CHANNELS 3 Zrotation Xrotation Yrotation
    JOINT Spine1
    {
      OFFSET 7.38963 1.71661e-005 0
      CHANNELS 3 Zrotation Xrotation Yrotation
      JOINT Spine2
      {
        OFFSET 11.9445 1.14441e-005 0
        CHANNELS 3 Zrotation Xrotation Yrotation
        JOINT Spine3
        {
          OFFSET 14.7254 4.19617e-005 0
          CHANNELS 3 Zrotation Xrotation Yrotation
          JOINT Spine4
          {
            OFFSET 10.9679 0 0
            CHANNELS 3 Zrotation Xrotation Yrotation
            JOINT RightShoulder
            {
              OFFSET 2.46616 -1.6653 3.69651
              CHANNELS 3 Zrotation Xrotation Yrotation
              JOINT RightArm
              {
                OFFSET 13.0012 0 0
                CHANNELS 3 Zrotation Xrotation Yrotation
                JOINT RightForeArm
                {
                  OFFSET 28.7848 1.62311e-005 0
                  CHANNELS 3 Zrotation Xrotation Yrotation
                  JOINT RightHand
                  {
                    OFFSET 26.5688 1.62095e-005 0
                    CHANNELS 3 Zrotation Xrotation Yrotation
                    End Site
                    {
                      OFFSET 0 0 0
                    }
                  }
                }
              }
            }
            JOINT LeftShoulder
            {
              OFFSET 2.38034 -1.29275 -3.7523
              CHANNELS 3 Zrotation Xrotation Yrotation
              JOINT LeftArm
              {
                OFFSET 16.3182 6.07031e-005 0
                CHANNELS 3 Zrotation Xrotation Yrotation
                JOINT LeftForeArm
                {
                  OFFSET 27.0901 0 0
                  CHANNELS 3 Zrotation Xrotation Yrotation
                  JOINT LeftHand
                  {
                    OFFSET 24.5451 1.51738e-005 0
                    CHANNELS 3 Zrotation Xrotation Yrotation
                    End Site
                    {
                      OFFSET 0 0 0
                    }
                  }
                }
              }
            }
            JOINT Neck
            {
              OFFSET 5.0226 -0.0266342 0
              CHANNELS 3 Zrotation Xrotation Yrotation
              JOINT Head
              {
                OFFSET 6.69364 2.86102e-005 0
                CHANNELS 3 Zrotation Xrotation Yrotation
                End Site
                {
                  OFFSET 0 0 0
                }
              }
            }
          }
        }
      }
    }
  }
}
MOTION
Frames:	15
Frame Time:	0.0416667
-335.797 82.6639 342.73 69.703 46.7036 96.8216 -165.614 53.7306 72.9672 -56.7872 9.73159 -6.30959 76.606 9.42202 0.726374 17.2915 -5.12414 -1.05653 170.504 -9.37173 84.1826 -38.6017 -17.2 -5.06186 59.5256 1.38465 -0.621024 80.5781 -18.4544 15.2617 2.28768 8.14252 -88.6381 10.539 5.18198 2.24327 -1.12312 5.27567 2.01254 -23.7034 4.26835 3.69837 -3.69077 4.26836 3.69837 92.3225 -18.0272 -106.757 23.1598 -4.55827 -27.7658 3.95114 -7.74751 -19.1478 -30.3295 3.87175 -21.1077 -89.1298 -39.6024 77.7013 -23.9697 1.39938 15.0638 1.44659 30.3201 -5.06778 16.079 -3.31213 -24.6398 49.8198 -9.52591 -1.84274 -19.7733 -7.73143 -0.193226 
-327.815 82.0578 334.755 72.5973 50.8563 94.3522 -167.726 44.8699 73.2357 -61.813 10.8291 -4.66706 84.7068 15.1447 1.13107 25.7202 -1.12539 -0.898297 171.71 -2.06394 88.425 -62.1597 -19.2949 -5.36691 62.8505 -0.656098 -2.35178 85.157 -21.9597 9.32233 1.69124 8.44953 -88.5327 9.92489 4.03696 2.58419 -1.74201 4.14674 2.40387 -24.2888 3.07414 3.67786 -4.27617 3.07413 3.67785 90.4323 -22.7275 -108.934 29.644 -4.61389 -17.8149 -0.0737279 -18.0774 -23.4573 -25.7608 2.28625 -19.2949 -89.3198 -44.8565 78.6456 -22.2582 3.38122 0.635482 3.52176 31.5103 -8.76301 19.9251 -5.26533 -28.8943 50.429 -11.4144 -5.61987 -17.5173 -7.40855 1.0648 
-320.3 81.9792 326.579 73.7005 53.5089 92.6242 -169.998 34.5642 74.2742 -61.5915 7.58304 -3.63702 94.5748 19.4057 -4.8794 29.2034 0.320337 -0.365181 174.496 15.3104 83.2934 -85.6313 -9.54748 -5.29655 71.0931 -6.3471 -5.4164 77.0139 -20.6151 3.68392 1.25071 8.63579 -88.3497 9.549 3.23754 3.02425 -2.12107 3.36744 2.87886 -24.6452 2.17969 3.8567 -4.63257 2.17968 3.8567 90.1533 -26.6055 -107.805 36.6239 -7.10777 -5.18831 2.27261 -21.8429 -21.5433 -26.5583 1.76931 -17.2483 -90.6236 -49.1249 77.6036 -16.9179 8.45819 -20.5712 7.53668 35.954 -14.5929 25.8607 -5.73727 -24.3423 48.4734 -12.4079 -8.59283 -14.984 -6.75513 1.14895 
-312.333 81.9976 318.486 76.4442 53.7559 93.1282 -171.323 22.026 80.2442 -57.8364 7.77465 -2.2384 103.06 22.6733 -10.2249 32.5828 1.03683 2.56451 179.041 33.6177 88.5611 -98.5777 -0.399133 -5.23108 76.8153 -10.5065 -6.52181 60.5426 -14.0477 1.57995 0.820708 8.70399 -88.6226 9.42971 2.256 2.55739 -2.24149 2.36633 2.45566 -24.7642 1.38353 3.11675 -4.75153 1.38351 3.11675 91.426 -27.593 -104.773 43.5423 -5.9043 10.3233 1.9659 -30.1018 -22.0213 -28.1843 1.2454 -15.8993 -90.8009 -46.5723 76.7271 -11.3623 12.5188 -39.3921 16.8057 35.7383 -26.4936 20.6598 -3.4135 -20.6835 44.1288 -11.1548 -11.3974 -12.1951 -4.49512 1.14029 
-303.643 82.1619 310.553 74.727 57.5096 100.268 -172.089 11.2169 89.3031 -49.9141 11.5128 0.360464 107.325 26.519 -10.4823 32.349 0.297639 4.64422 177.502 50.8804 93.3526 -96.8169 2.367 -3.86269 81.6968 -12.7407 -5.64355 36.6127 -4.18082 4.95836 -0.44167 8.4299 -89.4345 10.016 -0.62293 1.17384 -1.65534 -0.570652 1.2001 -24.1888 -0.946915 0.932376 -4.1761 -0.946894 0.932385 92.6139 -24.5827 -103.353 46.3621 -2.99308 27.2661 -3.01906 -37.1216 -29.02 -28.8143 1.00841 -16.3443 -89.3915 -38.6134 77.0025 -7.63328 10.1151 -50.6521 22.5731 34.6744 -36.3769 28.8196 -7.99712 -28.6808 39.757 -7.69173 -13.852 -12.5594 -0.712147 3.59345 
-293.697 85.0783 299.703 75.8597 55.7948 103.503 -170.028 -1.98455 97.2374 -33.8881 19.9301 1.69767 87.0824 20.4447 1.66169 45.9856 6.87533 5.68279 178.66 57.1546 94.6709 -78.3409 0.126661 -2.41796 80.7175 -11.1942 -3.29037 19.0985 2.73832 6.11479 -1.44408 8.07826 -90.1339 10.7208 -2.93748 0.00246277 -0.946711 -2.93454 0.131848 -23.5075 -2.8023 -0.881209 -3.49484 -2.8023 -0.881215 92.5902 -21.1146 -104.754 43.46 -2.47489 41.1289 -7.46296 -37.149 -36.669 -29.0913 1.80277 -20.2117 -87.1068 -31.1053 79.1562 -6.74183 7.64556 -50.633 26.2499 31.5545 -40.0071 37.1615 -15.0689 -39.209 35.6011 -1.36041 -14.0156 -15.8352 4.56634 5.14082 
-281.923 88.9466 286.765 79.4319 49.9521 105.093 -168.35 -14.8878 98.8147 -24.6052 22.7281 3.84793 60.8279 1.57048 4.60841 39.4322 6.06543 -2.48529 -179.177 51.8991 98.32 -51.2874 -4.37207 -0.657334 74.352 -7.8337 -0.802569 23.209 0.926892 6.5406 -1.71574 7.93492 -90.9579 10.9853 -3.85956 -1.5408 -0.680584 -3.92362 -1.36924 -23.2434 -3.21802 -2.6302 -3.23073 -3.21801 -2.63021 91.9242 -18.538 -107.476 40.4698 -2.43869 48.1898 -10.724 -35.5518 -41.5684 -30.392 2.36227 -21.9114 -85.9859 -27.6097 80.4339 -5.66997 9.19865 -44.0942 30.2155 29.2049 -44.5033 34.5577 -16.1813 -44.3876 35.1411 4.56579 -11.1237 -21.4671 8.47217 5.51895 
-270.546 90.3148 274.511 80.6219 46.9593 104.115 -171.208 -16.2896 96.0166 -34.3624 26.4817 5.83181 56.4375 -2.42659 3.84686 22.5269 -0.815033 -5.5618 -178.682 46.0602 99.0097 -38.6409 -9.13045 -0.0538617 73.6438 -9.02636 -2.64855 24.8362 0.449936 5.83011 -1.6607 7.73799 -91.2544 11.3599 -3.88937 -2.10888 -0.306623 -3.97838 -1.93551 -22.8599 -3.07599 -3.18054 -2.84727 -3.07598 -3.18054 89.1888 -21.2021 -112.467 38.4332 2.66572 49.5155 -10.2984 -28.233 -40.4464 -32.7427 3.87242 -24.7099 -85.8952 -28.8316 80.9258 -4.47518 15.7787 -41.9099 29.8049 31.6024 -43.873 37.575 -17.6394 -44.0626 33.7815 7.25932 -7.68091 -22.7816 9.58514 4.10642 
-259.944 89.8794 263.454 85.4505 45.3936 99.1654 -171.663 -9.96215 93.2703 -56.6758 21.9836 4.1752 59.1768 -0.942695 4.38195 29.1391 2.03434 -5.863 178.701 37.8943 99.5499 -39.9319 -8.6147 0.943617 70.9464 -6.10247 -2.06466 27.949 -0.736622 5.42368 -1.33598 7.79846 -91.2029 11.2456 -3.21849 -2.07713 -0.422831 -3.30678 -1.93341 -22.9651 -2.44568 -2.94832 -2.95248 -2.44569 -2.94832 90.3508 -25.3467 -107.928 36.7103 3.75499 36.8404 -8.73851 -23.7895 -37.1674 -35.9575 4.10065 -22.5658 -88.1258 -38.9979 79.2603 -0.754476 24.9625 -34.0733 28.3216 24.0976 -45.4026 31.8771 -15.2137 -45.5489 30.5721 8.21083 -3.77989 -19.8671 8.9799 2.85342 
-249.336 89.2304 253.276 85.7254 43.9841 102.496 -168.879 6.04496 99.7676 -79.2471 9.2294 3.69984 66.6542 3.42879 7.08739 27.3794 1.02565 -5.09657 175.306 32.8788 103.577 -47.3336 -11.8834 3.15304 72.5998 -7.53741 -2.48133 21.1839 1.47488 7.62696 -0.786456 7.66449 -91.8316 11.4944 -2.42052 -3.40376 -0.178511 -2.56791 -3.29406 -22.6838 -1.28662 -3.97302 -2.67114 -1.28663 -3.97303 91.8264 -27.3136 -104.046 37.0823 5.37882 20.28 -16.1016 -26.5571 -42.7891 -34.6232 3.61053 -22.5792 -88.5376 -49.5204 80.8441 -3.31235 29.3899 -20.5253 31.6132 30.9058 -47.3827 36.2927 -14.8043 -39.1688 26.7547 9.46654 2.69779 -15.1772 7.97973 0.975067 
-239.6 88.1271 243.708 88.0483 39.9579 102.058 -168.949 26.6852 97.9213 -92.2647 1.66545 3.85699 72.682 7.25919 8.56135 19.3363 -2.73019 -4.18785 176.687 24.0194 105.369 -52.7049 -14.7774 1.84217 80.8033 -14.9707 -6.10108 23.5646 0.545248 7.5194 0.120459 7.7469 -91.9135 11.3564 -0.652559 -3.74496 -0.319613 -0.816604 -3.71269 -22.8123 0.502304 -3.76803 -2.79971 0.502313 -3.76803 91.7652 -28.2646 -103.825 37.2731 4.65459 0.345351 -17.9375 -22.3448 -47.3736 -33.0095 4.26291 -25.2683 -87.3607 -50.6061 82.7932 -12.9566 27.6098 4.07962 34.551 32.6144 -49.5611 42.5048 -16.4867 -36.3405 24.7769 8.21822 5.63468 -13.5172 5.93178 -0.306852 
-229.518 88.4144 232.665 86.9725 39.7058 99.0248 -173.3 41.5798 92.9618 -87.7257 1.49204 3.40288 76.5397 10.1298 8.80979 21.8265 -0.6376 -6.76797 177.587 10.0496 102.853 -48.6901 -12.3423 -0.682976 86.8883 -18.2523 -3.22857 27.5097 -0.852116 6.84278 1.00794 7.42534 -91.3598 12.026 1.36202 -2.86683 0.352443 1.23462 -2.92396 -22.1701 2.16037 -2.32536 -2.15746 2.16039 -2.32536 92.184 -24.3221 -104.407 36.2587 3.43938 -10.165 -21.2803 -18.9651 -56.1723 -39.0743 5.78915 -26.3924 -85.2725 -47.7558 85.5242 -20.1655 31.5259 25.3765 33.3701 13.3485 -52.72 28.3127 -13.9214 -47.1841 21.2267 3.92374 7.20686 -13.584 1.72824 -2.88374 
-217.836 91.8906 219.492 90.4862 40.892 91.4675 -175.88 41.0831 87.3843 -63.3021 -0.604374 1.42532 77.3133 10.6379 5.58968 20.9259 -2.85865 -2.2284 175.272 -7.10613 93.5119 -35.9879 -17.0801 -3.886 74.8263 -9.61922 -4.47404 36.0711 -4.36669 8.39735 2.16285 7.44867 -90.3721 12.0047 4.12471 -1.19105 0.339585 4.06831 -1.3717 -22.2483 4.29163 0.105909 -2.23561 4.29166 0.105915 93.9639 -20.7722 -101.685 36.7877 4.43525 -8.30121 -25.8368 -14.8375 -67.6444 -41.2057 6.36616 -27.0168 -84.9381 -41.4988 85.1301 -23.6425 33.2325 36.1065 35.7336 9.3798 -55.017 29.0341 -15.6871 -50.9699 17.0719 -4.4949 0.657141 -14.2407 -4.35433 -2.1778 
-204.898 95.8062 205.103 94.4447 41.0224 83.9689 -179.038 29.0502 84.1672 -26.6835 2.34059 -0.0814326 67.1492 6.53773 3.04589 26.1779 -0.190888 -3.04438 169.031 -18.5229 83.5872 -31.477 -25.7449 -7.03076 59.7305 2.345 -2.21428 25.2962 -0.545304 9.40552 3.00187 7.57577 -89.5741 11.7238 6.17002 0.194547 0.0676231 6.17261 -0.0782766 -22.5759 5.82522 2.04628 -2.56329 5.82521 2.04627 95.3726 -15.7769 -100.052 37.9046 3.02523 -2.16201 -22.3004 -8.96351 -74.1366 -37.7663 7.78098 -32.3707 -85.2393 -36.7524 83.8199 -27.5382 30.9048 43.5965 38.1641 6.61939 -57.1036 33.8257 -18.2502 -50.74 12.2195 -9.94302 -5.51177 -15.2706 -8.15558 -2.30374 
-193.071 96.2848 192.592 93.5048 41.3778 87.9331 -179.081 22.7662 87.5364 -5.61591 10.9468 -0.0705529 63.73 6.81033 1.5765 24.1069 -3.94318 4.35247 169.868 -20.7696 86.7723 -37.4883 -21.7695 -5.08565 61.6803 1.08545 -1.43559 22.3878 1.06559 7.29307 2.98599 7.20978 -89.8054 12.4902 6.02598 -0.298786 0.833228 6.00697 -0.564689 -21.8106 5.83619 1.53245 -1.79792 5.83622 1.53245 94.9852 -15.1056 -101.312 37.3411 -1.96221 2.07138 -23.5018 -6.77439 -79.9826 -36.4481 7.54427 -32.9412 -85.2542 -37.8868 83.971 -30.4016 23.4583 50.5214 39.5595 3.87543 -59.3971 33.8557 -18.8735 -52.2082 6.42155 -9.48501 -8.1741 -13.478 -7.59151 -1.73571 
